<?xml version="1.0" encoding="UTF-8"?>
<svg id="Layer_2" data-name="Layer 2" xmlns="http://www.w3.org/2000/svg" viewBox="0 0 187.41 99.11">
  <defs>
    <style>
      .cls-1 {
        fill: #741c28;
      }
    </style>
  </defs>
  <g id="Layer_1-2" data-name="Layer 1">
    <g>
      <g>
        <path class="cls-1" d="M27.38,11.36c.34.6.49.88.65,1.15,1.19,1.93,3,2.5,4.92,1.54,1.61-.8,2.21-2.62,1.52-4.64-.96-2.84-4.16-4.55-7.97-4.27-5.91.43-9.72,3.61-11.5,9.12-2.27,7-1.78,13.89,1.69,20.41,4.88,9.16,17.11,10.24,23.62,2.18.72-.89,1.43-1.78,2.15-2.67.21.07.41.14.62.22-.12,1.05-.11,2.14-.39,3.14-2.25,7.86-9.38,12.9-18.39,13.07C11.8,50.84,1.01,41.02.11,28.42-.59,18.69,2.06,10.17,10.56,4.57,17.94-.29,26.09-1.37,34.47,1.8c8.24,3.13,10.66,13.54,4.64,19.3-2.32,2.22-5.15,3.01-8.25,2.44-2.7-.5-4.84-1.99-5.57-4.77-.7-2.65-.03-5.07,2.09-7.4Z"/>
        <path class="cls-1" d="M154.08,50.28h-13.45c2.8-2.98,1.74-6.45,1.85-9.71.13-3.74.03-7.48.03-11.22-.18-.04-.35-.08-.53-.12-.36.81-.76,1.6-1.09,2.42-2.28,5.65-4.51,11.31-6.86,16.93-.32.76-1.14,1.55-1.91,1.81-1.24.43-1.85-.6-2.3-1.64-2.55-5.89-5.11-11.78-7.67-17.67-.26-.6-.54-1.2-1.02-2.26-.16.9-.3,1.35-.3,1.81-.04,4.24-.1,8.48-.06,12.72.02,2.5-.16,5.14,2.79,6.58-.1.15-.21.3-.31.46h-10.17c3.55-2.75,2.59-6.5,2.65-9.96.1-5.5.03-11,0-16.49-.02-2.68.42-5.5-2.52-7.58.83-.17,1.24-.33,1.66-.33,3.25-.04,6.49.02,9.74-.1,1.42-.05,2.13.44,2.64,1.76,1.82,4.69,3.76,9.33,5.67,13.98.25.61.55,1.19.96,2.06.33-.62.58-1.02.76-1.44,2-4.83,4.02-9.65,5.96-14.51.57-1.43,1.39-2.04,2.97-2,3.3.1,6.6.03,9.99.03-.01.24.06.64-.05.71-2.25,1.33-2.01,3.52-2,5.64.03,7.02.07,14.04.12,21.07.02,2.52-.12,5.11,2.76,6.54-.1.17-.19.34-.29.51Z"/>
        <path class="cls-1" d="M49.66,64.3c.15.12.32.22.45.36,1.5,1.77,3.19,2.18,4.61,1.11,1.56-1.17,2-3.49.61-5.13-.88-1.04-2.21-1.98-3.52-2.34-4.89-1.35-9.98.94-12.31,5.71-3.42,6.99-3.5,14.13.4,20.95,4.7,8.22,16.11,8.6,21.63.87.67-.93,1.29-1.9,2.13-2.75.29,2.63-.49,4.94-1.8,7.09-4.97,8.14-15.63,11.21-24.67,7.14-9.91-4.47-14.69-15.8-11.28-26.98,4.52-14.84,18.86-18.76,28.87-15.65,6.9,2.14,10.11,8.25,7.75,14.35-1.56,4.02-5.39,6.4-9.55,5.93-2.55-.29-4.56-1.95-5.18-4.29-.69-2.57.04-5.1,1.86-6.37Z"/>
        <path class="cls-1" d="M44.54,16.13c1.1-.09,1.66-.17,2.21-.17,5.63.02,11.26.03,16.89.1,1.25.01,2.52.11,3.75.34,4.61.87,7.3,3.72,7.73,8.07.43,4.32-1.81,7.89-6.06,9.66-.3.13-.6.27-.93.43,2.32,4.46,4.53,8.93,6.96,13.28,1.47,2.63,3.92,4.25,6.78,5.22.66.22,1.32.47,1.98.71.07.23.13.46.2.69-.88.49-1.72,1.22-2.66,1.42-5.52,1.13-10.38-.21-14.34-4.31-2.96-3.06-4.78-6.8-6.16-10.77-.46-1.31-.81-2.68-1.45-3.9-.38-.72-1.22-1.2-1.85-1.79-.17.13-.34.26-.51.39,0,3.94-.17,7.89.11,11.82.08,1.13,1.44,2.17,2.32,3.4h-14.77c-.13-.14-.25-.27-.38-.41,3.93-2.45,2.6-6.21,2.7-9.55.14-5.09.07-10.2,0-15.3-.04-3.17.57-6.52-2.53-9.31ZM57.07,20.04v12.09c2.55.03,5.02.33,6.73-2.02,1.39-1.9,1.46-6.1.1-8.15-1.67-2.52-4.24-1.87-6.83-1.91Z"/>
        <path class="cls-1" d="M180.31,31.61c7.01,3.16,9.08,9.65,5.08,14.96-1.66,2.2-3.96,3.51-6.6,3.6-6.94.25-13.89.21-20.84.28-.24,0-.48-.16-1.03-.35,3.07-2.4,2.21-5.67,2.24-8.7.06-6.49.01-12.98,0-19.46,0-2.16.36-4.46-2.46-5.94.94-.27,1.34-.48,1.74-.48,6.22.04,12.45-.05,18.66.23,5.73.26,8.97,3.68,8.68,8.72-.2,3.43-2.01,5.76-5.47,7.15ZM168.94,33.68c0,4.06-.01,7.95.02,11.84,0,.32.27.77.55.92,1.68.93,5.69-.13,6.61-1.89,1.5-2.89,1.55-5.93-.18-8.71-1.58-2.53-4.25-2.19-7-2.16ZM168.99,29.94c2.5.15,4.91.13,6.24-2.16,1.25-2.16,1.26-4.61-.16-6.77-1.48-2.24-3.82-1.79-6.08-1.82v10.76Z"/>
        <path class="cls-1" d="M100.58,16.14h9.98c.04.23.13.43.08.47-2.54,1.88-2.44,4.6-2.42,7.34.02,5.23,0,10.47-.1,15.7-.07,3.24-.7,6.31-3.21,8.7-4.76,4.54-15.69,4.9-20.72.64-2.28-1.93-3.33-4.45-3.4-7.35-.12-5.76-.12-11.53-.21-17.29-.04-2.79.57-5.79-2.16-8.11h13.99c-3.5,3.32-2.12,7.4-2.25,11.16-.15,4.3-.07,8.62.14,12.91.23,4.79,3.6,7.1,8.23,5.89,2.29-.6,4.05-2.47,4.09-5.05.1-6.95.09-13.91-.11-20.86-.04-1.33-1.18-2.62-1.93-4.16Z"/>
        <path class="cls-1" d="M65.7,91.86c2.49-1.96,2-4.63,2.01-7.17.01-5.83,0-11.66-.02-17.48,0-2.18.26-4.47-2.32-5.95,4.05-1.19,8.08-.9,12.22-1.33-3.4,3.98-1.52,8.5-2.05,12.93,2.65-.27,5.01-.45,7.34-.8.41-.06,1.02-.82,1.03-1.28.07-2.58.18-5.19-.14-7.73-.15-1.18-1.25-2.24-2.09-3.64,4-.26,7.94-.51,12.48-.81-3.48,3.95-2,8.19-2.21,12.16-.21,3.96-.06,7.95-.05,11.92,0,2.04-.32,4.18,1.91,5.59-.08.19-.16.37-.24.56-3.92.45-7.83.9-12.28,1.41,4.11-4.56,1.89-9.53,2.7-14.49-2.72.32-5.07.54-7.39.91-.35.06-.85.79-.85,1.22-.05,2.91-.17,5.84.11,8.73.13,1.29,1.15,2.49,1.94,4.09-3.82.54-7.74,1.09-11.65,1.64-.15-.15-.29-.3-.44-.45Z"/>
        <path class="cls-1" d="M174.22,73.97c0,3.28,0,6.18,0,9.09,0,1.38.85,2.03,2.08,2.24,3.55.63,6.76.27,8.86-3.19.17-.28.42-.51.65-.73.08-.07.25-.05.83-.14-.31,2.53-.57,4.96-.96,7.37-.04.25-.85.56-1.29.53-6.27-.47-12.54-.98-18.81-1.5-.24-.02-.47-.16-1.02-.36,2.48-1.84,1.95-4.37,1.96-6.73.02-5.1,0-10.2-.07-15.3-.05-4.2-.08-4.2-2.28-7.63,7.22.48,14.09.93,21.25,1.41v7.6c-1.54-1.55-2.77-3.51-4.54-4.36-1.85-.89-4.22-.72-6.64-1.04,0,3.16,0,5.99.01,8.81,0,.23.14.53.32.68,1.2,1.02,5.19.06,5.97-1.37.33-.61.77-1.16,1.31-1.95,1,2.33.86,8.44-.1,10.09-1.02-1.04-1.84-2.41-3.05-2.98-1.22-.58-2.82-.37-4.51-.53Z"/>
        <path class="cls-1" d="M95.28,88.08c2.98-1.74,2.4-4.54,2.42-7.13.04-5.1.07-10.2.03-15.31-.02-2.39.44-4.95-2.42-6.97,1.18-.19,1.78-.35,2.39-.37,5.56-.21,11.13-.34,16.68-.63,1.68-.09,2.26.49,2.18,2.12-.09,1.81-.02,3.62-.02,5.6-1.76-1.55-3.01-3.35-4.69-3.94-1.82-.64-4.03-.14-6.22-.14v8.98c3.28.69,5.79-.25,7.37-3.51.14.12.29.24.43.36v9.23c-1.35-1.04-2.29-2.19-3.49-2.58-1.24-.41-2.73-.09-4.41-.09,0,3.53-.05,6.82.07,10.1.01.35,1.01.95,1.54.94,3.73-.04,7.39-.36,9.14-4.5.13-.31.52-.52.79-.77l.59.11c-.12,1.7-.18,3.4-.36,5.09-.31,2.84-.35,2.82-3.23,2.97-5.36.29-10.72.6-16.07.89-.77.04-1.55,0-2.33,0-.13-.15-.27-.3-.4-.45Z"/>
        <path class="cls-1" d="M119.49,57.69c.44-.06.88-.16,1.32-.17,5.76-.15,11.53-.25,17.29-.46,1.48-.05,2.07.42,1.98,1.89-.11,1.99-.13,3.98-.2,6.19-1.85-1.71-3.12-3.61-4.86-4.27-1.79-.68-4.03-.15-6.25-.15v9.14c1.55-.12,3.2.12,4.49-.46,1.2-.53,2.01-1.93,3.3-3.27v9.56c-.16.17-.33.34-.49.51-1.23-4.51-4.49-3.07-7.49-3.23,0,3.4-.05,6.62.06,9.84.01.38.84,1.02,1.32,1.05,4.02.23,7.94.1,9.94-4.35.1-.23.33-.41.52-.57.08-.07.25-.03.94-.08-.45,2.65-.86,5.19-1.36,7.72-.04.21-.66.43-1.01.43-6.49.11-12.98.19-19.48.25-.15,0-.3-.2-.71-.48,3.1-1.85,2.16-4.82,2.2-7.48.1-5.3.06-10.6.05-15.9,0-1.96.35-4.05-1.97-5.32l.39-.4Z"/>
        <path class="cls-1" d="M143.35,82.62c0-1.13-.07-2.26.04-3.37.04-.4.54-.76.82-1.14.34.27.79.47.98.81.41.75.66,1.58,1.02,2.37.86,1.88,2.31,2.99,4.36,3.39,2.23.43,4.11-.28,4.95-1.97.83-1.68.46-3.9-1.24-5.19-1.89-1.43-3.99-2.58-6.03-3.8-3.54-2.12-5.11-5.25-4.89-9.31.21-3.83,2.37-6.66,6.14-7.25,2.42-.37,4.97.06,7.45.17.65.03,1.39.49,1.92.3,2.1-.76,2.42.29,2.35,2-.06,1.65.01,3.31-.07,4.97-.02.37-.42.72-.64,1.08-.34-.25-.78-.43-1.01-.76-.48-.71-.81-1.52-1.27-2.24-1.12-1.74-2.8-2.81-4.81-2.68-1.23.08-2.79.72-3.51,1.65-.97,1.25-.64,2.99.57,4.17.93.91,2.08,1.62,3.18,2.34,1.94,1.26,4.05,2.29,5.86,3.71,3.21,2.54,4.26,6.11,3,9.77-1.28,3.71-4.06,5.69-7.91,5.94-2.09.13-4.23-.12-6.32-.38-1.24-.15-2.42-1.15-3.7-.03-.05.05-1.15-.7-1.23-1.17-.19-1.09-.06-2.24-.06-3.37.01,0,.02,0,.04,0Z"/>
      </g>
      <path class="cls-1" d="M14.57,70.31c-.68.81-1.45,1.43-2.32,1.87-.86.44-1.77.65-2.73.65-.72,0-1.39-.12-2-.37s-1.13-.59-1.57-1.02c-.44-.44-.78-.96-1.02-1.58-.25-.62-.37-1.29-.37-2.01,0-1.21.32-2.3.97-3.24.65-.95,1.56-1.68,2.73-2.19-.53.45-.92.95-1.15,1.5-.23.55-.35,1.13-.35,1.73,0,.64.13,1.28.4,1.92.27.64.63,1.21,1.1,1.71.47.5,1.02.91,1.66,1.21.64.31,1.33.46,2.08.46.85,0,1.7-.21,2.56-.64ZM16.78,72.67c-1.98-2.26-3.61-4.15-4.87-5.69-1.27-1.53-2.27-2.83-3-3.9-.73-1.06-1.24-1.96-1.52-2.68-.28-.72-.42-1.41-.42-2.04,0-1.26.43-2.25,1.29-2.97.86-.72,2.02-1.09,3.47-1.09,1.28,0,2.22.27,2.81.8.6.53.89,1.16.89,1.89,0,.47-.11.9-.34,1.29-.22.39-.53.74-.91,1.04-.38.3-.84.54-1.36.72-.52.18-1.08.3-1.68.37.81-.6,1.41-1.25,1.79-1.95.38-.7.57-1.36.57-1.98,0-.57-.16-1.05-.48-1.44-.32-.38-.79-.57-1.41-.57s-1.09.2-1.47.59-.58.94-.58,1.65.21,1.5.64,2.44c.43.95,1.1,2.07,2.03,3.35.93,1.29,2.11,2.77,3.56,4.44,1.45,1.67,3.18,3.58,5.21,5.74h-4.25ZM16.65,67.53c.21-.49.37-.98.46-1.49.1-.5.14-.99.14-1.45,0-.94-.18-1.76-.54-2.46-.36-.7-.87-1.17-1.53-1.41h2.59c.4,0,.69.11.86.34.17.22.26.52.26.88,0,.66-.21,1.49-.64,2.48-.43.99-.96,2.03-1.6,3.12Z"/>
    </g>
  </g>
</svg>